:SAMPLES-PER-SECOND 30
:FULLY-SPECIFIED
:DEGREES
183
root  34.89503335 36.55745439 -14.28131043 10.63366795 0.2650190294 4.812648773
lowerback  -8.619397163 1.99740541 1.023730993
upperback  -4.111889839 2.141330004 -4.927815437
thorax  0.7961810231 0.8045482635 -5.50316
lowerneck  -11.17590046 -9.547513962 -5.521389961
upperneck  11.68200016 -13.4751997 8.180649757
head  6.313288689 -6.34253931 2.195944786
lclavicle  0 -4.497500157e-015 -2.743230041e-014
lhumerus  -48.22169876 30.12509918 61.14500046
lradius  -0.04084192589 -6.507048965e-006 28.55019951
lwrist  3.192251654e-007 -3.790274832e-007 -30.56080055
lhand  -4.444376243e-031 -37.39049911 -10.64420033
lfingers  90 7.125020027 -90
lthumb  95.03917786 -25.46282472 101.5906279
rclavicle  0 -4.497500157e-015 -2.743230041e-014
rhumerus  57.82730484 -23.12120247 -48.69150162
rradius  -5.16745672e-007 2.214343908e-008 36.41059875
rwrist  0.0006954420824 -0.004670973402 -156.0829926
rhand  -1.771090098e-031 4.527910233 -7.418739796
rfingers  -90 -7.125020027 -90
rthumb  -84.9842808 -8.63851772 -59.70133041
rfemur  -12.33404636 13.83734226 12.12184525
rtibia  -1.413765788 -1.090463758 20.10261154
rfoot  -0.05348119885 -20.37172508 -38.61510468
rtoes  3.835383386 19.64359766 -101.2782295
lfemur  -5.609342575 -18.17243004 -22.88672256
ltibia  6.55545187 0.2330111116 8.025020599
lfoot  0.7054393291 -23.13678551 34.17606735
ltoes  -8.663773519 -18.09572501 -116.1312943
184
root  34.8960516 36.55853572 -14.28013449 10.63947487 0.2390745133 4.788509369
lowerback  -8.618944168 1.99928546 1.009396076
upperback  -4.121250153 2.136899948 -4.929337978
thorax  0.7836520076 0.8047254086 -5.503499985
lowerneck  -11.18719959 -9.549295425 -5.52546978
upperneck  11.70839977 -13.48260021 8.202320099
head  6.325953007 -6.341862202 2.201267719
lclavicle  0 -4.497500157e-015 -2.743230041e-014
lhumerus  -48.22180176 30.04719925 61.16180038
lradius  -0.03572412208 -6.507048965e-006 28.59090233
lwrist  3.192251654e-007 -3.790274832e-007 -30.48089981
lhand  -4.445669426e-031 -37.41230011 -10.62590027
lfingers  90 7.125020027 -90
lthumb  95.04530381 -25.44412997 101.6121489
rclavicle  0 -4.497500157e-015 -2.743230041e-014
rhumerus  57.75790024 -23.06150055 -48.64590073
rradius  -5.16745672e-007 2.214343908e-008 36.43640137
rwrist  0.0006954420824 -0.004670973402 -156.0899963
rhand  -1.771604892e-031 4.73348999 -7.536709785
rfingers  -90 -7.125020027 -90
rthumb  -84.99697132 -8.550232453 -59.51006918
rfemur  -12.31887245 13.79049683 12.12283993
rtibia  -1.391512036 -1.137791157 20.04155159
rfoot  -0.01327635162 -20.46960068 -38.52164841
rtoes  3.868106619 19.63742429 -101.375586
lfemur  -5.811710358 -18.24918938 -22.79078674
ltibia  6.404805183 0.2006905377 8.366671562
lfoot  0.7223641276 -23.20191002 34.20149994
ltoes  -8.660704342 -18.09715588 -116.1214134
185
root  34.89693169 36.55961104 -14.27949019 10.6604557 0.2145933211 4.783123493
lowerback  -8.614809036 2.002349377 0.9972082376
upperback  -4.12804985 2.135407448 -4.930439949
thorax  0.7738209963 0.8046645522 -5.495837212
lowerneck  -11.19209957 -9.55381012 -5.494339943
upperneck  11.73630047 -13.48589897 8.195630074
head  6.333197594 -6.341169357 2.193416595
lclavicle  0 -4.497500157e-015 -2.743230041e-014
lhumerus  -48.21379852 30.05109978 61.12099838
lradius  -0.03042157181 -6.507048965e-006 28.56749916
lwrist  3.192251654e-007 -3.790274832e-007 -30.53149986
lhand  -4.448129075e-031 -37.45370102 -10.60210037
lfingers  90 7.125020027 -90
lthumb  95.05933568 -25.41926486 101.6540681
rclavicle  0 -4.497500157e-015 -2.743230041e-014
rhumerus  57.68410492 -22.99950218 -48.56370163
rradius  -5.16745672e-007 2.214343908e-008 36.45009995
rwrist  0.0006954420824 -0.004670973402 -156.1109924
rhand  -1.771699018e-031 4.77011013 -7.722139835
rfingers  -90 -7.125020027 -90
rthumb  -85.08363194 -8.392975405 -59.48834758
rfemur  -12.35684204 13.7931509 12.11411667
rtibia  -1.389925122 -1.133288264 20.05504608
rfoot  -0.009993838146 -20.46087265 -38.48967361
rtoes  3.849342975 19.64097082 -101.3197578
lfemur  -5.774104595 -18.17959785 -22.80389786
ltibia  6.452201843 0.2397396713 8.265003204
lfoot  0.7336563468 -23.23923492 34.21939468
ltoes  -8.657150494 -18.0988119 -116.1099731
186
root  34.8974273 36.55951492 -14.27898257 10.67920208 0.199064225 4.790806293
lowerback  -8.601920128 2.005050421 1.002599955
upperback  -4.131080151 2.135689974 -4.931101799
thorax  0.763365984 0.8044020534 -5.490449905
lowerneck  -11.20779991 -9.564430237 -5.516870022
upperneck  11.76620007 -13.49909973 8.195750237
head  6.347797394 -6.340464592 2.193980694
lclavicle  0 -4.497500157e-015 -2.743230041e-014
lhumerus  -48.18939972 30.07069969 61.10210037
lradius  -0.02493195236 -6.507048965e-006 28.5340004
lwrist  3.192251654e-007 -3.790274832e-007 -30.59440041
lhand  -4.448813043e-031 -37.46519852 -10.59790039
lfingers  90 7.125020027 -90
lthumb  95.06378439 -25.41475872 101.6659647
rclavicle  0 -4.497500157e-015 -2.743230041e-014
rhumerus  57.57640457 -22.9314003 -48.38570023
rradius  -5.16745672e-007 2.214343908e-008 36.46210098
rwrist  0.0006954420824 -0.004670973402 -156.322998
rhand  -1.771966062e-031 4.872489929 -7.792300224
rfingers  -90 -7.125020027 -90
rthumb  -85.09620713 -8.339586016 -59.39396935
rfemur  -12.39962196 13.81438828 12.10384655
rtibia  -1.39726007 -1.112808943 20.09375381
rfoot  -0.01110096369 -20.41484642 -38.46466827
rtoes  3.829649332 19.64467379 -101.2611729
lfemur  -5.710015774 -18.09382248 -22.84346581
ltibia  6.516667366 0.2606554329 8.120105743
lfoot  0.7269407511 -23.22137451 34.18906784
ltoes  -8.670104453 -18.09277149 -116.1516784
